<mxfile host="app.diagrams.net" modified="2023-01-10T05:54:27.234Z" agent="5.0 (Windows NT 10.0; Win64; x64) AppleWebKit/537.36 (KHTML, like Gecko) Chrome/108.0.0.0 Safari/537.36" etag="OVHL0aNe2vfC0EWEfjsH" version="20.8.3" type="github">
  <diagram id="C5RBs43oDa-KdzZeNtuy" name="Page-1">
    <mxGraphModel dx="1909" dy="998" grid="1" gridSize="10" guides="1" tooltips="1" connect="1" arrows="1" fold="1" page="1" pageScale="1" pageWidth="4681" pageHeight="3300" math="0" shadow="0">
      <root>
        <mxCell id="WIyWlLk6GJQsqaUBKTNV-0" />
        <mxCell id="WIyWlLk6GJQsqaUBKTNV-1" parent="WIyWlLk6GJQsqaUBKTNV-0" />
        <mxCell id="9x4rTWt2LroOw13o1F7v-9" value="DAL Class" style="swimlane;fontStyle=1;align=center;verticalAlign=top;childLayout=stackLayout;horizontal=1;startSize=26;horizontalStack=0;resizeParent=1;resizeParentMax=0;resizeLast=0;collapsible=1;marginBottom=0;" parent="WIyWlLk6GJQsqaUBKTNV-1" vertex="1">
          <mxGeometry x="1110" y="520" width="290" height="170" as="geometry" />
        </mxCell>
        <mxCell id="9x4rTWt2LroOw13o1F7v-16" value="+ Register(Users,SqlConnection): Response&#xa;+ AddMessage(AddMessage,SqlConnection): Response&#xa;+ AddUser(AddUser,SqlConnection)&#xa;+ Login(Users,SqlConnection): Response&#xa;+ viewUser(Users,SqlConnection): Response&#xa;+ getregisters(SqlConnection): getregisterdetails&#xa;+ updateProfile(Users,SqlConnection)&#xa;+ orderList(SqlCoonection): List&lt;reports&gt;&#xa;+ UserList(SqlConnection): List&lt;Users&gt;&#xa;" style="text;strokeColor=none;fillColor=none;align=left;verticalAlign=top;spacingLeft=4;spacingRight=4;overflow=hidden;rotatable=0;points=[[0,0.5],[1,0.5]];portConstraint=eastwest;" parent="9x4rTWt2LroOw13o1F7v-9" vertex="1">
          <mxGeometry y="26" width="290" height="144" as="geometry" />
        </mxCell>
        <mxCell id="9x4rTWt2LroOw13o1F7v-13" value="Users Controller" style="swimlane;fontStyle=1;align=center;verticalAlign=top;childLayout=stackLayout;horizontal=1;startSize=26;horizontalStack=0;resizeParent=1;resizeParentMax=0;resizeLast=0;collapsible=1;marginBottom=0;" parent="WIyWlLk6GJQsqaUBKTNV-1" vertex="1">
          <mxGeometry x="1110" y="190" width="290" height="170" as="geometry" />
        </mxCell>
        <mxCell id="9x4rTWt2LroOw13o1F7v-14" value="+ Register(Users,SqlConnection): Response&#xa;+ AddMessage(AddMessage,SqlConnection): Response&#xa;+ AddUser(AddUser,SqlConnection)&#xa;+ Login(Users,SqlConnection): Response&#xa;+ viewUser(Users,SqlConnection): Response&#xa;+ getregisters(SqlConnection): getregisterdetails&#xa;+ updateProfile(Users,SqlConnection)&#xa;+ orderList(SqlCoonection): List&lt;reports&gt;&#xa;+ UserList(SqlConnection): List&lt;Users&gt;&#xa;" style="text;strokeColor=none;fillColor=none;align=left;verticalAlign=top;spacingLeft=4;spacingRight=4;overflow=hidden;rotatable=0;points=[[0,0.5],[1,0.5]];portConstraint=eastwest;" parent="9x4rTWt2LroOw13o1F7v-13" vertex="1">
          <mxGeometry y="26" width="290" height="144" as="geometry" />
        </mxCell>
        <mxCell id="9x4rTWt2LroOw13o1F7v-18" value="1" style="endArrow=open;html=1;endSize=12;startArrow=diamondThin;startSize=14;startFill=1;edgeStyle=orthogonalEdgeStyle;align=left;verticalAlign=bottom;rounded=0;entryX=0.559;entryY=1.01;entryDx=0;entryDy=0;entryPerimeter=0;" parent="WIyWlLk6GJQsqaUBKTNV-1" source="9x4rTWt2LroOw13o1F7v-16" target="9x4rTWt2LroOw13o1F7v-14" edge="1">
          <mxGeometry x="-1" y="3" relative="1" as="geometry">
            <mxPoint x="930" y="620" as="sourcePoint" />
            <mxPoint x="1090" y="620" as="targetPoint" />
            <Array as="points">
              <mxPoint x="922" y="620" />
            </Array>
          </mxGeometry>
        </mxCell>
        <mxCell id="9x4rTWt2LroOw13o1F7v-19" value="AddMessage" style="swimlane;fontStyle=0;childLayout=stackLayout;horizontal=1;startSize=26;fillColor=none;horizontalStack=0;resizeParent=1;resizeParentMax=0;resizeLast=0;collapsible=1;marginBottom=0;" parent="WIyWlLk6GJQsqaUBKTNV-1" vertex="1">
          <mxGeometry x="1550" y="350" width="140" height="78" as="geometry" />
        </mxCell>
        <mxCell id="9x4rTWt2LroOw13o1F7v-20" value="+ ID: int" style="text;strokeColor=none;fillColor=none;align=left;verticalAlign=top;spacingLeft=4;spacingRight=4;overflow=hidden;rotatable=0;points=[[0,0.5],[1,0.5]];portConstraint=eastwest;" parent="9x4rTWt2LroOw13o1F7v-19" vertex="1">
          <mxGeometry y="26" width="140" height="26" as="geometry" />
        </mxCell>
        <mxCell id="9x4rTWt2LroOw13o1F7v-21" value="+ Box: string" style="text;strokeColor=none;fillColor=none;align=left;verticalAlign=top;spacingLeft=4;spacingRight=4;overflow=hidden;rotatable=0;points=[[0,0.5],[1,0.5]];portConstraint=eastwest;" parent="9x4rTWt2LroOw13o1F7v-19" vertex="1">
          <mxGeometry y="52" width="140" height="26" as="geometry" />
        </mxCell>
        <mxCell id="9x4rTWt2LroOw13o1F7v-23" value="Use" style="endArrow=open;endSize=12;dashed=1;html=1;rounded=0;exitX=1;exitY=0;exitDx=0;exitDy=0;entryX=-0.017;entryY=0.808;entryDx=0;entryDy=0;entryPerimeter=0;" parent="WIyWlLk6GJQsqaUBKTNV-1" source="9x4rTWt2LroOw13o1F7v-9" target="9x4rTWt2LroOw13o1F7v-20" edge="1">
          <mxGeometry width="160" relative="1" as="geometry">
            <mxPoint x="1200" y="570" as="sourcePoint" />
            <mxPoint x="1360" y="570" as="targetPoint" />
          </mxGeometry>
        </mxCell>
        <mxCell id="9x4rTWt2LroOw13o1F7v-24" value="AddUser" style="swimlane;fontStyle=0;childLayout=stackLayout;horizontal=1;startSize=26;fillColor=none;horizontalStack=0;resizeParent=1;resizeParentMax=0;resizeLast=0;collapsible=1;marginBottom=0;" parent="WIyWlLk6GJQsqaUBKTNV-1" vertex="1">
          <mxGeometry x="1550" y="550" width="160" height="160" as="geometry" />
        </mxCell>
        <mxCell id="9x4rTWt2LroOw13o1F7v-25" value="+ ID: int" style="text;strokeColor=none;fillColor=none;align=left;verticalAlign=top;spacingLeft=4;spacingRight=4;overflow=hidden;rotatable=0;points=[[0,0.5],[1,0.5]];portConstraint=eastwest;" parent="9x4rTWt2LroOw13o1F7v-24" vertex="1">
          <mxGeometry y="26" width="160" height="26" as="geometry" />
        </mxCell>
        <mxCell id="9x4rTWt2LroOw13o1F7v-26" value="+ UserName: String&#xa;&#xa;+ Dtime: String&#xa;&#xa;+ OrderName: String&#xa;&#xa;+ Comments: String" style="text;strokeColor=none;fillColor=none;align=left;verticalAlign=top;spacingLeft=4;spacingRight=4;overflow=hidden;rotatable=0;points=[[0,0.5],[1,0.5]];portConstraint=eastwest;" parent="9x4rTWt2LroOw13o1F7v-24" vertex="1">
          <mxGeometry y="52" width="160" height="108" as="geometry" />
        </mxCell>
        <mxCell id="9x4rTWt2LroOw13o1F7v-27" value="Use" style="endArrow=open;endSize=12;dashed=1;html=1;rounded=0;exitX=0.999;exitY=0.565;exitDx=0;exitDy=0;entryX=0;entryY=0.22;entryDx=0;entryDy=0;entryPerimeter=0;exitPerimeter=0;" parent="WIyWlLk6GJQsqaUBKTNV-1" source="9x4rTWt2LroOw13o1F7v-16" target="9x4rTWt2LroOw13o1F7v-26" edge="1">
          <mxGeometry width="160" relative="1" as="geometry">
            <mxPoint x="1410" y="628" as="sourcePoint" />
            <mxPoint x="1557.62" y="407.00800000000004" as="targetPoint" />
          </mxGeometry>
        </mxCell>
        <mxCell id="9x4rTWt2LroOw13o1F7v-28" value="Users" style="swimlane;fontStyle=0;childLayout=stackLayout;horizontal=1;startSize=40;fillColor=none;horizontalStack=0;resizeParent=1;resizeParentMax=0;resizeLast=0;collapsible=1;marginBottom=0;" parent="WIyWlLk6GJQsqaUBKTNV-1" vertex="1">
          <mxGeometry x="1380" y="780" width="170" height="300" as="geometry" />
        </mxCell>
        <mxCell id="9x4rTWt2LroOw13o1F7v-29" value="+ ID: int" style="text;strokeColor=none;fillColor=none;align=left;verticalAlign=top;spacingLeft=4;spacingRight=4;overflow=hidden;rotatable=0;points=[[0,0.5],[1,0.5]];portConstraint=eastwest;" parent="9x4rTWt2LroOw13o1F7v-28" vertex="1">
          <mxGeometry y="40" width="170" height="26" as="geometry" />
        </mxCell>
        <mxCell id="9x4rTWt2LroOw13o1F7v-30" value="+ FirstName: String&#xa;&#xa;+ LastName: String&#xa;&#xa;+ Password: String&#xa;&#xa;+ Emaiil: String&#xa;&#xa;+ Fund: Decimal&#xa;&#xa;+ Type: String&#xa;&#xa;+ Status: int&#xa;&#xa;+ CreatedOn: String" style="text;strokeColor=none;fillColor=none;align=left;verticalAlign=top;spacingLeft=4;spacingRight=4;overflow=hidden;rotatable=0;points=[[0,0.5],[1,0.5]];portConstraint=eastwest;" parent="9x4rTWt2LroOw13o1F7v-28" vertex="1">
          <mxGeometry y="66" width="170" height="234" as="geometry" />
        </mxCell>
        <mxCell id="9x4rTWt2LroOw13o1F7v-31" value="Use" style="endArrow=open;endSize=12;dashed=1;html=1;rounded=0;exitX=0.65;exitY=1.044;exitDx=0;exitDy=0;entryX=0;entryY=0;entryDx=0;entryDy=0;exitPerimeter=0;" parent="WIyWlLk6GJQsqaUBKTNV-1" source="9x4rTWt2LroOw13o1F7v-16" target="9x4rTWt2LroOw13o1F7v-28" edge="1">
          <mxGeometry width="160" relative="1" as="geometry">
            <mxPoint x="1409.71" y="637.3599999999999" as="sourcePoint" />
            <mxPoint x="1560" y="635.76" as="targetPoint" />
          </mxGeometry>
        </mxCell>
        <mxCell id="9x4rTWt2LroOw13o1F7v-32" value="registerdetails" style="swimlane;fontStyle=0;childLayout=stackLayout;horizontal=1;startSize=40;fillColor=none;horizontalStack=0;resizeParent=1;resizeParentMax=0;resizeLast=0;collapsible=1;marginBottom=0;" parent="WIyWlLk6GJQsqaUBKTNV-1" vertex="1">
          <mxGeometry x="1650" y="780" width="200" height="110" as="geometry" />
        </mxCell>
        <mxCell id="9x4rTWt2LroOw13o1F7v-33" value="+Â  loggeddatearray: List&lt;String&gt;" style="text;strokeColor=none;fillColor=none;align=left;verticalAlign=top;spacingLeft=4;spacingRight=4;overflow=hidden;rotatable=0;points=[[0,0.5],[1,0.5]];portConstraint=eastwest;" parent="9x4rTWt2LroOw13o1F7v-32" vertex="1">
          <mxGeometry y="40" width="200" height="26" as="geometry" />
        </mxCell>
        <mxCell id="9x4rTWt2LroOw13o1F7v-34" value="+ noofpersonsarray: List&lt;int&gt;" style="text;strokeColor=none;fillColor=none;align=left;verticalAlign=top;spacingLeft=4;spacingRight=4;overflow=hidden;rotatable=0;points=[[0,0.5],[1,0.5]];portConstraint=eastwest;" parent="9x4rTWt2LroOw13o1F7v-32" vertex="1">
          <mxGeometry y="66" width="200" height="44" as="geometry" />
        </mxCell>
        <mxCell id="9x4rTWt2LroOw13o1F7v-35" value="Use" style="endArrow=open;endSize=12;dashed=1;html=1;rounded=0;exitX=0.65;exitY=1.044;exitDx=0;exitDy=0;entryX=0;entryY=0.25;entryDx=0;entryDy=0;exitPerimeter=0;" parent="WIyWlLk6GJQsqaUBKTNV-1" target="9x4rTWt2LroOw13o1F7v-32" edge="1">
          <mxGeometry width="160" relative="1" as="geometry">
            <mxPoint x="1400" y="669.996" as="sourcePoint" />
            <mxPoint x="1481.5" y="753.66" as="targetPoint" />
          </mxGeometry>
        </mxCell>
        <mxCell id="9x4rTWt2LroOw13o1F7v-36" value="Response" style="swimlane;fontStyle=0;childLayout=stackLayout;horizontal=1;startSize=40;fillColor=none;horizontalStack=0;resizeParent=1;resizeParentMax=0;resizeLast=0;collapsible=1;marginBottom=0;" parent="WIyWlLk6GJQsqaUBKTNV-1" vertex="1">
          <mxGeometry x="1550" y="60" width="160" height="260" as="geometry" />
        </mxCell>
        <mxCell id="9x4rTWt2LroOw13o1F7v-37" value="+ StatusCode: int" style="text;strokeColor=none;fillColor=none;align=left;verticalAlign=top;spacingLeft=4;spacingRight=4;overflow=hidden;rotatable=0;points=[[0,0.5],[1,0.5]];portConstraint=eastwest;" parent="9x4rTWt2LroOw13o1F7v-36" vertex="1">
          <mxGeometry y="40" width="160" height="26" as="geometry" />
        </mxCell>
        <mxCell id="9x4rTWt2LroOw13o1F7v-38" value="+ StatusMessage: String&#xa;&#xa;+ user: Users&#xa;&#xa;+ ListOrders: List&lt;Orders&gt;&#xa;&#xa;+ ListOrderss: List&lt;AddUser&gt;&#xa;&#xa;+ order: Orders&#xa;&#xa;+ ListItems: List&lt;OrderItems&gt;&#xa;&#xa;+ ListCart: List&lt;Cart&gt;&#xa;" style="text;strokeColor=none;fillColor=none;align=left;verticalAlign=top;spacingLeft=4;spacingRight=4;overflow=hidden;rotatable=0;points=[[0,0.5],[1,0.5]];portConstraint=eastwest;" parent="9x4rTWt2LroOw13o1F7v-36" vertex="1">
          <mxGeometry y="66" width="160" height="194" as="geometry" />
        </mxCell>
        <mxCell id="9x4rTWt2LroOw13o1F7v-39" value="Use" style="endArrow=open;endSize=12;dashed=1;html=1;rounded=0;exitX=0.947;exitY=0.003;exitDx=0;exitDy=0;entryX=-0.003;entryY=0.866;entryDx=0;entryDy=0;entryPerimeter=0;exitPerimeter=0;" parent="WIyWlLk6GJQsqaUBKTNV-1" source="9x4rTWt2LroOw13o1F7v-9" target="9x4rTWt2LroOw13o1F7v-38" edge="1">
          <mxGeometry width="160" relative="1" as="geometry">
            <mxPoint x="1391.19" y="520" as="sourcePoint" />
            <mxPoint x="1538.81" y="299.00800000000015" as="targetPoint" />
          </mxGeometry>
        </mxCell>
        <mxCell id="9x4rTWt2LroOw13o1F7v-40" value="Reports" style="swimlane;fontStyle=0;childLayout=stackLayout;horizontal=1;startSize=26;fillColor=none;horizontalStack=0;resizeParent=1;resizeParentMax=0;resizeLast=0;collapsible=1;marginBottom=0;" parent="WIyWlLk6GJQsqaUBKTNV-1" vertex="1">
          <mxGeometry x="1790" y="410" width="130" height="90" as="geometry" />
        </mxCell>
        <mxCell id="9x4rTWt2LroOw13o1F7v-41" value="+ Number: int" style="text;strokeColor=none;fillColor=none;align=left;verticalAlign=top;spacingLeft=4;spacingRight=4;overflow=hidden;rotatable=0;points=[[0,0.5],[1,0.5]];portConstraint=eastwest;" parent="9x4rTWt2LroOw13o1F7v-40" vertex="1">
          <mxGeometry y="26" width="130" height="26" as="geometry" />
        </mxCell>
        <mxCell id="9x4rTWt2LroOw13o1F7v-42" value="+ Dtime: String&#xa;" style="text;strokeColor=none;fillColor=none;align=left;verticalAlign=top;spacingLeft=4;spacingRight=4;overflow=hidden;rotatable=0;points=[[0,0.5],[1,0.5]];portConstraint=eastwest;" parent="9x4rTWt2LroOw13o1F7v-40" vertex="1">
          <mxGeometry y="52" width="130" height="38" as="geometry" />
        </mxCell>
        <mxCell id="9x4rTWt2LroOw13o1F7v-43" value="Use" style="endArrow=open;endSize=12;dashed=1;html=1;rounded=0;exitX=1.003;exitY=0.035;exitDx=0;exitDy=0;entryX=0;entryY=0.5;entryDx=0;entryDy=0;exitPerimeter=0;" parent="WIyWlLk6GJQsqaUBKTNV-1" source="9x4rTWt2LroOw13o1F7v-16" target="9x4rTWt2LroOw13o1F7v-41" edge="1">
          <mxGeometry width="160" relative="1" as="geometry">
            <mxPoint x="1399.7099999999996" y="541.5999999999999" as="sourcePoint" />
            <mxPoint x="1550" y="539.9999999999999" as="targetPoint" />
          </mxGeometry>
        </mxCell>
        <mxCell id="9x4rTWt2LroOw13o1F7v-44" value="&lt;div style=&quot;box-sizing:border-box;width:100%;background:#e4e4e4;padding:2px;&quot;&gt;Users (Table)&lt;/div&gt;&lt;table style=&quot;width:100%;font-size:1em;&quot; cellpadding=&quot;2&quot; cellspacing=&quot;0&quot;&gt;&lt;tbody&gt;&lt;tr&gt;&lt;td&gt;ID&amp;nbsp; &amp;nbsp;INT&lt;br&gt;FirstName&amp;nbsp; &amp;nbsp;VARCHAR(100)&lt;br&gt;LastName&amp;nbsp; &amp;nbsp;VARCHAR(100)&lt;br&gt;Password&amp;nbsp; &amp;nbsp; VARCHAR(100)&lt;br&gt;Email&amp;nbsp; &amp;nbsp; &amp;nbsp; &amp;nbsp; &amp;nbsp; &amp;nbsp;VARCHAR(100)&lt;br&gt;CreatedOn&amp;nbsp; &amp;nbsp;VARCHAR(20)&lt;br&gt;&lt;br&gt;&lt;/td&gt;&lt;td&gt;&lt;br&gt;&lt;/td&gt;&lt;/tr&gt;&lt;tr&gt;&lt;td&gt;&lt;br&gt;&lt;/td&gt;&lt;td&gt;&lt;br&gt;&lt;/td&gt;&lt;/tr&gt;&lt;tr&gt;&lt;td&gt;&lt;/td&gt;&lt;td&gt;&lt;br&gt;&lt;/td&gt;&lt;/tr&gt;&lt;/tbody&gt;&lt;/table&gt;" style="verticalAlign=top;align=left;overflow=fill;html=1;" parent="WIyWlLk6GJQsqaUBKTNV-1" vertex="1">
          <mxGeometry x="740" y="880" width="160" height="120" as="geometry" />
        </mxCell>
        <mxCell id="9x4rTWt2LroOw13o1F7v-45" value="" style="endArrow=block;startArrow=block;endFill=1;startFill=1;html=1;rounded=0;exitX=0.25;exitY=1;exitDx=0;exitDy=0;entryX=0;entryY=0;entryDx=0;entryDy=0;" parent="WIyWlLk6GJQsqaUBKTNV-1" source="fUeiBSBgCRL01I6MIeUb-0" target="9x4rTWt2LroOw13o1F7v-44" edge="1">
          <mxGeometry width="160" relative="1" as="geometry">
            <mxPoint x="740" y="770" as="sourcePoint" />
            <mxPoint x="900" y="770" as="targetPoint" />
          </mxGeometry>
        </mxCell>
        <mxCell id="9x4rTWt2LroOw13o1F7v-48" value="&lt;div style=&quot;box-sizing:border-box;width:100%;background:#e4e4e4;padding:2px;&quot;&gt;UserInput (Table)&lt;/div&gt;&lt;table style=&quot;width:100%;font-size:1em;&quot; cellpadding=&quot;2&quot; cellspacing=&quot;0&quot;&gt;&lt;tbody&gt;&lt;tr&gt;&lt;td&gt;ID&amp;nbsp; &amp;nbsp;INT&lt;br&gt;UserName&amp;nbsp; &amp;nbsp;VARCHAR(50)&lt;br&gt;Dtime&amp;nbsp; &amp;nbsp; &amp;nbsp; &amp;nbsp; &amp;nbsp; &amp;nbsp;VARCHAR(50)&lt;br&gt;OrderName&amp;nbsp; VARCHAR(50)&lt;br&gt;Comments&amp;nbsp; &amp;nbsp;VARCHAR(50)&lt;br&gt;&lt;br&gt;&lt;/td&gt;&lt;td&gt;&lt;br&gt;&lt;/td&gt;&lt;/tr&gt;&lt;tr&gt;&lt;td&gt;&lt;br&gt;&lt;/td&gt;&lt;td&gt;&lt;br&gt;&lt;/td&gt;&lt;/tr&gt;&lt;tr&gt;&lt;td&gt;&lt;/td&gt;&lt;td&gt;&lt;br&gt;&lt;/td&gt;&lt;/tr&gt;&lt;/tbody&gt;&lt;/table&gt;" style="verticalAlign=top;align=left;overflow=fill;html=1;" parent="WIyWlLk6GJQsqaUBKTNV-1" vertex="1">
          <mxGeometry x="950" y="880" width="160" height="100" as="geometry" />
        </mxCell>
        <mxCell id="9x4rTWt2LroOw13o1F7v-49" value="" style="endArrow=block;startArrow=block;endFill=1;startFill=1;html=1;rounded=0;exitX=0.923;exitY=1.143;exitDx=0;exitDy=0;exitPerimeter=0;entryX=0.103;entryY=0.02;entryDx=0;entryDy=0;entryPerimeter=0;" parent="WIyWlLk6GJQsqaUBKTNV-1" source="fUeiBSBgCRL01I6MIeUb-0" target="9x4rTWt2LroOw13o1F7v-48" edge="1">
          <mxGeometry width="160" relative="1" as="geometry">
            <mxPoint x="772.3199999999999" y="503.8879999999999" as="sourcePoint" />
            <mxPoint x="750" y="890" as="targetPoint" />
          </mxGeometry>
        </mxCell>
        <mxCell id="9x4rTWt2LroOw13o1F7v-50" value="&lt;div style=&quot;box-sizing:border-box;width:100%;background:#e4e4e4;padding:2px;&quot;&gt;Reports (Table)&lt;/div&gt;&lt;table style=&quot;width:100%;font-size:1em;&quot; cellpadding=&quot;2&quot; cellspacing=&quot;0&quot;&gt;&lt;tbody&gt;&lt;tr&gt;&lt;td&gt;Number&amp;nbsp; &amp;nbsp;INT&lt;br&gt;Dtime&amp;nbsp; &amp;nbsp;VARCHAR(50)&lt;br&gt;&lt;br&gt;&lt;/td&gt;&lt;td&gt;&lt;br&gt;&lt;/td&gt;&lt;/tr&gt;&lt;tr&gt;&lt;td&gt;&lt;br&gt;&lt;/td&gt;&lt;td&gt;&lt;br&gt;&lt;/td&gt;&lt;/tr&gt;&lt;tr&gt;&lt;td&gt;&lt;/td&gt;&lt;td&gt;&lt;br&gt;&lt;/td&gt;&lt;/tr&gt;&lt;/tbody&gt;&lt;/table&gt;" style="verticalAlign=top;align=left;overflow=fill;html=1;" parent="WIyWlLk6GJQsqaUBKTNV-1" vertex="1">
          <mxGeometry x="755" y="460" width="130" height="60" as="geometry" />
        </mxCell>
        <mxCell id="9x4rTWt2LroOw13o1F7v-53" value="" style="endArrow=block;startArrow=block;endFill=1;startFill=1;html=1;rounded=0;exitX=1;exitY=0;exitDx=0;exitDy=0;entryX=-0.011;entryY=0.732;entryDx=0;entryDy=0;entryPerimeter=0;" parent="WIyWlLk6GJQsqaUBKTNV-1" source="9x4rTWt2LroOw13o1F7v-50" target="9x4rTWt2LroOw13o1F7v-14" edge="1">
          <mxGeometry width="160" relative="1" as="geometry">
            <mxPoint x="800" y="670" as="sourcePoint" />
            <mxPoint x="960" y="670" as="targetPoint" />
          </mxGeometry>
        </mxCell>
        <mxCell id="fUeiBSBgCRL01I6MIeUb-0" value="DATA CLIENT OBJECT" style="rounded=1;whiteSpace=wrap;html=1;" vertex="1" parent="WIyWlLk6GJQsqaUBKTNV-1">
          <mxGeometry x="750" y="660" width="200" height="70" as="geometry" />
        </mxCell>
        <mxCell id="fUeiBSBgCRL01I6MIeUb-1" value="" style="endArrow=classic;startArrow=classic;html=1;rounded=0;entryX=0.5;entryY=1;entryDx=0;entryDy=0;" edge="1" parent="WIyWlLk6GJQsqaUBKTNV-1" source="fUeiBSBgCRL01I6MIeUb-0" target="9x4rTWt2LroOw13o1F7v-50">
          <mxGeometry width="50" height="50" relative="1" as="geometry">
            <mxPoint x="1250" y="450" as="sourcePoint" />
            <mxPoint x="1300" y="400" as="targetPoint" />
          </mxGeometry>
        </mxCell>
        <mxCell id="fUeiBSBgCRL01I6MIeUb-2" value="" style="endArrow=classic;startArrow=classic;html=1;rounded=0;exitX=0.843;exitY=0;exitDx=0;exitDy=0;exitPerimeter=0;" edge="1" parent="WIyWlLk6GJQsqaUBKTNV-1" source="fUeiBSBgCRL01I6MIeUb-0">
          <mxGeometry width="50" height="50" relative="1" as="geometry">
            <mxPoint x="1250" y="450" as="sourcePoint" />
            <mxPoint x="1240" y="370" as="targetPoint" />
          </mxGeometry>
        </mxCell>
        <mxCell id="fUeiBSBgCRL01I6MIeUb-3" value="AXIOS HTTP CLIENT LIBRARY" style="rounded=1;whiteSpace=wrap;html=1;" vertex="1" parent="WIyWlLk6GJQsqaUBKTNV-1">
          <mxGeometry x="680" y="210" width="210" height="130" as="geometry" />
        </mxCell>
        <mxCell id="fUeiBSBgCRL01I6MIeUb-9" value="" style="endArrow=classic;startArrow=classic;html=1;rounded=0;entryX=-0.01;entryY=0.392;entryDx=0;entryDy=0;entryPerimeter=0;exitX=1;exitY=0.5;exitDx=0;exitDy=0;" edge="1" parent="WIyWlLk6GJQsqaUBKTNV-1" source="fUeiBSBgCRL01I6MIeUb-3" target="9x4rTWt2LroOw13o1F7v-14">
          <mxGeometry width="50" height="50" relative="1" as="geometry">
            <mxPoint x="1250" y="440" as="sourcePoint" />
            <mxPoint x="1300" y="390" as="targetPoint" />
          </mxGeometry>
        </mxCell>
        <mxCell id="fUeiBSBgCRL01I6MIeUb-24" value="&lt;p style=&quot;margin:0px;margin-top:6px;text-align:center;&quot;&gt;&lt;b&gt;Component&lt;/b&gt;&lt;/p&gt;&lt;p style=&quot;margin:0px;margin-top:6px;text-align:center;&quot;&gt;&lt;b&gt;Register&lt;/b&gt;&lt;/p&gt;" style="align=left;overflow=fill;html=1;dropTarget=0;" vertex="1" parent="WIyWlLk6GJQsqaUBKTNV-1">
          <mxGeometry x="190" y="40" width="180" height="90" as="geometry" />
        </mxCell>
        <mxCell id="fUeiBSBgCRL01I6MIeUb-25" value="" style="shape=component;jettyWidth=8;jettyHeight=4;" vertex="1" parent="fUeiBSBgCRL01I6MIeUb-24">
          <mxGeometry x="1" width="20" height="20" relative="1" as="geometry">
            <mxPoint x="-24" y="4" as="offset" />
          </mxGeometry>
        </mxCell>
        <mxCell id="fUeiBSBgCRL01I6MIeUb-26" value="&lt;p style=&quot;margin:0px;margin-top:6px;text-align:center;&quot;&gt;&lt;b&gt;Component&lt;/b&gt;&lt;/p&gt;&lt;p style=&quot;margin:0px;margin-top:6px;text-align:center;&quot;&gt;&lt;b&gt;AddMessage&lt;/b&gt;&lt;/p&gt;" style="align=left;overflow=fill;html=1;dropTarget=0;" vertex="1" parent="WIyWlLk6GJQsqaUBKTNV-1">
          <mxGeometry x="190" y="190" width="180" height="90" as="geometry" />
        </mxCell>
        <mxCell id="fUeiBSBgCRL01I6MIeUb-27" value="" style="shape=component;jettyWidth=8;jettyHeight=4;" vertex="1" parent="fUeiBSBgCRL01I6MIeUb-26">
          <mxGeometry x="1" width="20" height="20" relative="1" as="geometry">
            <mxPoint x="-24" y="4" as="offset" />
          </mxGeometry>
        </mxCell>
        <mxCell id="fUeiBSBgCRL01I6MIeUb-28" value="&lt;p style=&quot;margin:0px;margin-top:6px;text-align:center;&quot;&gt;&lt;b&gt;Component&lt;/b&gt;&lt;/p&gt;&lt;p style=&quot;margin:0px;margin-top:6px;text-align:center;&quot;&gt;&lt;b&gt;AddUser&lt;/b&gt;&lt;/p&gt;" style="align=left;overflow=fill;html=1;dropTarget=0;" vertex="1" parent="WIyWlLk6GJQsqaUBKTNV-1">
          <mxGeometry x="190" y="360" width="180" height="90" as="geometry" />
        </mxCell>
        <mxCell id="fUeiBSBgCRL01I6MIeUb-29" value="" style="shape=component;jettyWidth=8;jettyHeight=4;" vertex="1" parent="fUeiBSBgCRL01I6MIeUb-28">
          <mxGeometry x="1" width="20" height="20" relative="1" as="geometry">
            <mxPoint x="-24" y="4" as="offset" />
          </mxGeometry>
        </mxCell>
        <mxCell id="fUeiBSBgCRL01I6MIeUb-30" value="&lt;p style=&quot;margin:0px;margin-top:6px;text-align:center;&quot;&gt;&lt;b&gt;Component&lt;/b&gt;&lt;/p&gt;&lt;p style=&quot;margin:0px;margin-top:6px;text-align:center;&quot;&gt;&lt;b&gt;Login&lt;/b&gt;&lt;/p&gt;" style="align=left;overflow=fill;html=1;dropTarget=0;" vertex="1" parent="WIyWlLk6GJQsqaUBKTNV-1">
          <mxGeometry x="190" y="550" width="180" height="90" as="geometry" />
        </mxCell>
        <mxCell id="fUeiBSBgCRL01I6MIeUb-31" value="" style="shape=component;jettyWidth=8;jettyHeight=4;" vertex="1" parent="fUeiBSBgCRL01I6MIeUb-30">
          <mxGeometry x="1" width="20" height="20" relative="1" as="geometry">
            <mxPoint x="-24" y="4" as="offset" />
          </mxGeometry>
        </mxCell>
        <mxCell id="fUeiBSBgCRL01I6MIeUb-32" value="&lt;p style=&quot;margin:0px;margin-top:6px;text-align:center;&quot;&gt;&lt;b&gt;Component&lt;/b&gt;&lt;/p&gt;&lt;p style=&quot;margin:0px;margin-top:6px;text-align:center;&quot;&gt;&lt;b&gt;getregisters&lt;/b&gt;&lt;/p&gt;" style="align=left;overflow=fill;html=1;dropTarget=0;" vertex="1" parent="WIyWlLk6GJQsqaUBKTNV-1">
          <mxGeometry x="470" y="40" width="180" height="90" as="geometry" />
        </mxCell>
        <mxCell id="fUeiBSBgCRL01I6MIeUb-33" value="" style="shape=component;jettyWidth=8;jettyHeight=4;" vertex="1" parent="fUeiBSBgCRL01I6MIeUb-32">
          <mxGeometry x="1" width="20" height="20" relative="1" as="geometry">
            <mxPoint x="-24" y="4" as="offset" />
          </mxGeometry>
        </mxCell>
        <mxCell id="fUeiBSBgCRL01I6MIeUb-34" value="&lt;p style=&quot;margin:0px;margin-top:6px;text-align:center;&quot;&gt;&lt;b&gt;Component&lt;/b&gt;&lt;/p&gt;&lt;p style=&quot;margin:0px;margin-top:6px;text-align:center;&quot;&gt;&lt;b&gt;viewUser&lt;/b&gt;&lt;/p&gt;" style="align=left;overflow=fill;html=1;dropTarget=0;" vertex="1" parent="WIyWlLk6GJQsqaUBKTNV-1">
          <mxGeometry x="450" y="680" width="180" height="90" as="geometry" />
        </mxCell>
        <mxCell id="fUeiBSBgCRL01I6MIeUb-35" value="" style="shape=component;jettyWidth=8;jettyHeight=4;" vertex="1" parent="fUeiBSBgCRL01I6MIeUb-34">
          <mxGeometry x="1" width="20" height="20" relative="1" as="geometry">
            <mxPoint x="-24" y="4" as="offset" />
          </mxGeometry>
        </mxCell>
        <mxCell id="fUeiBSBgCRL01I6MIeUb-36" value="&lt;p style=&quot;margin:0px;margin-top:6px;text-align:center;&quot;&gt;&lt;b&gt;Component&lt;/b&gt;&lt;/p&gt;&lt;p style=&quot;margin:0px;margin-top:6px;text-align:center;&quot;&gt;&lt;b&gt;orderList&lt;/b&gt;&lt;/p&gt;" style="align=left;overflow=fill;html=1;dropTarget=0;" vertex="1" parent="WIyWlLk6GJQsqaUBKTNV-1">
          <mxGeometry x="705" y="40" width="180" height="90" as="geometry" />
        </mxCell>
        <mxCell id="fUeiBSBgCRL01I6MIeUb-37" value="" style="shape=component;jettyWidth=8;jettyHeight=4;" vertex="1" parent="fUeiBSBgCRL01I6MIeUb-36">
          <mxGeometry x="1" width="20" height="20" relative="1" as="geometry">
            <mxPoint x="-24" y="4" as="offset" />
          </mxGeometry>
        </mxCell>
        <mxCell id="fUeiBSBgCRL01I6MIeUb-38" value="&lt;p style=&quot;margin:0px;margin-top:6px;text-align:center;&quot;&gt;&lt;b&gt;Component&lt;/b&gt;&lt;/p&gt;&lt;p style=&quot;margin:0px;margin-top:6px;text-align:center;&quot;&gt;&lt;b&gt;userList&lt;/b&gt;&lt;/p&gt;" style="align=left;overflow=fill;html=1;dropTarget=0;" vertex="1" parent="WIyWlLk6GJQsqaUBKTNV-1">
          <mxGeometry x="190" y="720" width="180" height="90" as="geometry" />
        </mxCell>
        <mxCell id="fUeiBSBgCRL01I6MIeUb-39" value="" style="shape=component;jettyWidth=8;jettyHeight=4;" vertex="1" parent="fUeiBSBgCRL01I6MIeUb-38">
          <mxGeometry x="1" width="20" height="20" relative="1" as="geometry">
            <mxPoint x="-24" y="4" as="offset" />
          </mxGeometry>
        </mxCell>
        <mxCell id="fUeiBSBgCRL01I6MIeUb-41" value="" style="endArrow=block;startArrow=block;endFill=1;startFill=1;html=1;rounded=0;entryX=0;entryY=0.25;entryDx=0;entryDy=0;exitX=1;exitY=1;exitDx=0;exitDy=0;" edge="1" parent="WIyWlLk6GJQsqaUBKTNV-1" source="fUeiBSBgCRL01I6MIeUb-24" target="fUeiBSBgCRL01I6MIeUb-3">
          <mxGeometry width="160" relative="1" as="geometry">
            <mxPoint x="490" y="188.18" as="sourcePoint" />
            <mxPoint x="650" y="188.18" as="targetPoint" />
          </mxGeometry>
        </mxCell>
        <mxCell id="fUeiBSBgCRL01I6MIeUb-42" value="" style="endArrow=block;startArrow=block;endFill=1;startFill=1;html=1;rounded=0;entryX=0;entryY=0.5;entryDx=0;entryDy=0;" edge="1" parent="WIyWlLk6GJQsqaUBKTNV-1" target="fUeiBSBgCRL01I6MIeUb-3">
          <mxGeometry width="160" relative="1" as="geometry">
            <mxPoint x="370" y="240" as="sourcePoint" />
            <mxPoint x="520" y="234.09" as="targetPoint" />
          </mxGeometry>
        </mxCell>
        <mxCell id="fUeiBSBgCRL01I6MIeUb-43" value="" style="endArrow=block;startArrow=block;endFill=1;startFill=1;html=1;rounded=0;entryX=0.097;entryY=-0.011;entryDx=0;entryDy=0;entryPerimeter=0;exitX=0.424;exitY=1.032;exitDx=0;exitDy=0;exitPerimeter=0;" edge="1" parent="WIyWlLk6GJQsqaUBKTNV-1" source="fUeiBSBgCRL01I6MIeUb-32" target="fUeiBSBgCRL01I6MIeUb-3">
          <mxGeometry width="160" relative="1" as="geometry">
            <mxPoint x="545" y="170" as="sourcePoint" />
            <mxPoint x="705" y="170" as="targetPoint" />
          </mxGeometry>
        </mxCell>
        <mxCell id="fUeiBSBgCRL01I6MIeUb-44" value="" style="endArrow=block;startArrow=block;endFill=1;startFill=1;html=1;rounded=0;entryX=0;entryY=0.75;entryDx=0;entryDy=0;exitX=1;exitY=0.5;exitDx=0;exitDy=0;" edge="1" parent="WIyWlLk6GJQsqaUBKTNV-1" source="fUeiBSBgCRL01I6MIeUb-28" target="fUeiBSBgCRL01I6MIeUb-3">
          <mxGeometry width="160" relative="1" as="geometry">
            <mxPoint x="380" y="410" as="sourcePoint" />
            <mxPoint x="540" y="410" as="targetPoint" />
          </mxGeometry>
        </mxCell>
        <mxCell id="fUeiBSBgCRL01I6MIeUb-45" value="" style="endArrow=block;startArrow=block;endFill=1;startFill=1;html=1;rounded=0;entryX=0.5;entryY=0;entryDx=0;entryDy=0;exitX=0.5;exitY=1;exitDx=0;exitDy=0;" edge="1" parent="WIyWlLk6GJQsqaUBKTNV-1" source="fUeiBSBgCRL01I6MIeUb-36" target="fUeiBSBgCRL01I6MIeUb-3">
          <mxGeometry width="160" relative="1" as="geometry">
            <mxPoint x="810" y="128.18" as="sourcePoint" />
            <mxPoint x="970" y="128.18" as="targetPoint" />
          </mxGeometry>
        </mxCell>
        <mxCell id="fUeiBSBgCRL01I6MIeUb-46" value="" style="endArrow=block;startArrow=block;endFill=1;startFill=1;html=1;rounded=0;exitX=0.75;exitY=0;exitDx=0;exitDy=0;" edge="1" parent="WIyWlLk6GJQsqaUBKTNV-1" source="fUeiBSBgCRL01I6MIeUb-38" target="fUeiBSBgCRL01I6MIeUb-3">
          <mxGeometry width="160" relative="1" as="geometry">
            <mxPoint x="410" y="650" as="sourcePoint" />
            <mxPoint x="570" y="650" as="targetPoint" />
          </mxGeometry>
        </mxCell>
        <mxCell id="fUeiBSBgCRL01I6MIeUb-47" value="" style="endArrow=block;startArrow=block;endFill=1;startFill=1;html=1;rounded=0;exitX=0.5;exitY=0;exitDx=0;exitDy=0;" edge="1" parent="WIyWlLk6GJQsqaUBKTNV-1" source="fUeiBSBgCRL01I6MIeUb-31">
          <mxGeometry width="160" relative="1" as="geometry">
            <mxPoint x="460" y="470" as="sourcePoint" />
            <mxPoint x="690" y="330" as="targetPoint" />
          </mxGeometry>
        </mxCell>
        <mxCell id="fUeiBSBgCRL01I6MIeUb-48" value="" style="endArrow=block;startArrow=block;endFill=1;startFill=1;html=1;rounded=0;entryX=0.381;entryY=1;entryDx=0;entryDy=0;entryPerimeter=0;exitX=0.5;exitY=0;exitDx=0;exitDy=0;" edge="1" parent="WIyWlLk6GJQsqaUBKTNV-1" source="fUeiBSBgCRL01I6MIeUb-34" target="fUeiBSBgCRL01I6MIeUb-3">
          <mxGeometry width="160" relative="1" as="geometry">
            <mxPoint x="580" y="604.09" as="sourcePoint" />
            <mxPoint x="740" y="604.09" as="targetPoint" />
          </mxGeometry>
        </mxCell>
      </root>
    </mxGraphModel>
  </diagram>
</mxfile>
